<svg width="16" height="16" viewBox="0 0 16 16" fill="none" xmlns="http://www.w3.org/2000/svg">
<g clip-path="url(#clip0_412_10)">
<path d="M14.8897 7.26209L1.76777 0.744283C1.63564 0.678657 1.48858 0.65394 1.34367 0.673003C1.19876 0.692066 1.06195 0.754127 0.949119 0.851978C0.836289 0.949829 0.752072 1.07946 0.706246 1.22581C0.660421 1.37216 0.654867 1.52923 0.690231 1.67877L1.62574 5.62938L7.61396 7.99942L1.62574 10.3695L0.690231 14.3201C0.654202 14.4697 0.659292 14.6271 0.704906 14.7738C0.750519 14.9206 0.83477 15.0505 0.947803 15.1486C1.06084 15.2466 1.19798 15.3086 1.34319 15.3274C1.48839 15.3462 1.63566 15.3209 1.76777 15.2546L14.8897 8.73675C15.0223 8.67095 15.1344 8.56668 15.2129 8.43611C15.2915 8.30555 15.3332 8.15408 15.3332 7.99942C15.3332 7.84476 15.2915 7.6933 15.2129 7.56273C15.1344 7.43216 15.0223 7.32789 14.8897 7.26209Z" fill="#E8F2FE"/>
</g>
<defs>
<clipPath id="clip0_412_10">
<rect width="16" height="16" fill="white"/>
</clipPath>
</defs>
</svg>
